<?xml version="1.0" standalone="no"?>
<!DOCTYPE svg PUBLIC "-//W3C//DTD SVG 20010904//EN"
 "http://www.w3.org/TR/2001/REC-SVG-20010904/DTD/svg10.dtd">
<svg width="60px" version="1.0" xmlns="http://www.w3.org/2000/svg"
  viewBox="0 0 835.000000 637.000000"
 preserveAspectRatio="xMidYMid meet">

<g transform="translate(0.000000,637.000000) scale(0.100000,-0.100000)"
fill="green" stroke="none">
<path d="M1180 6351 c-46 -9 -77 -27 -90 -51 -6 -11 -10 -96 -10 -203 l0 -184
228 -6 c125 -3 244 -11 264 -17 44 -13 58 -34 58 -89 0 -87 -26 -89 -957 -90
l-673 -1 0 -400 0 -400 4175 0 4175 0 0 400 0 400 -537 2 -538 3 -5 294 -5
294 -26 20 c-15 10 -46 23 -70 28 -24 4 -467 8 -985 9 l-940 0 -26 -27 c-42
-45 -48 -74 -48 -252 l0 -168 248 -6 c136 -3 255 -9 265 -13 23 -9 47 -55 47
-93 0 -17 -10 -42 -24 -58 l-24 -28 -1251 -4 -1251 -3 0 264 c0 145 -4 279
-10 297 -5 19 -22 47 -37 63 l-27 28 -945 -1 c-520 -1 -962 -4 -981 -8z"/>
<path d="M0 2325 l0 -2315 4175 0 4175 0 0 2315 0 2315 -4175 0 -4175 0 0
-2315z m5030 1340 c0 -3 -148 -166 -328 -363 -480 -522 -613 -673 -609 -686 5
-15 142 -99 432 -263 132 -75 246 -141 253 -148 13 -12 9 -16 -738 -740 -411
-398 -791 -757 -797 -752 -2 2 95 226 216 498 218 492 311 711 311 730 0 10
-98 58 -370 184 -112 51 -301 143 -308 150 -10 9 384 805 645 1302 l48 93 623
0 c342 0 622 -2 622 -5z"/>
</g>
</svg>
